<svg width="16" height="16" viewBox="0 0 16 16" fill="none" xmlns="http://www.w3.org/2000/svg">
<path d="M8.00002 10.6657C9.47223 10.6657 10.6657 9.47229 10.6657 8.00008C10.6657 6.52787 9.47223 5.33441 8.00002 5.33441C6.52781 5.33441 5.33435 6.52787 5.33435 8.00008C5.33435 9.47229 6.52781 10.6657 8.00002 10.6657Z" fill="#0882E5"/>
<path d="M15.5112 6.27995C14.4776 4.59657 12.1265 1.77228 7.99998 1.77228C3.87352 1.77228 1.52239 4.59657 0.488772 6.27995C-0.162924 7.33403 -0.162924 8.66591 0.488772 9.72002C1.52239 11.4034 3.87352 14.2277 7.99998 14.2277C12.1265 14.2277 14.4776 11.4034 15.5112 9.72002C16.1629 8.66591 16.1629 7.33403 15.5112 6.27995ZM7.99998 11.9985C5.79168 11.9985 4.00147 10.2083 4.00147 7.99997C4.00147 5.79166 5.79168 4.00145 7.99998 4.00145C10.2083 4.00145 11.9985 5.79166 11.9985 7.99997C11.9963 10.2074 10.2074 11.9963 7.99998 11.9985Z" fill="#0882E5"/>
</svg>
