<svg width="44" height="44" viewBox="0 0 44 44" fill="none" xmlns="http://www.w3.org/2000/svg">
<rect width="44" height="44" rx="22" fill="#C40004"/>
<g clip-path="url(#clip0_152_3816)">
<path d="M32.334 18.25C32.334 18.94 31.774 19.5 31.084 19.5H29.5965C29.7448 19.9892 29.834 20.4767 29.834 20.75C29.834 21.44 29.274 22 28.584 22C27.894 22 27.334 21.44 27.334 20.75C27.334 20.4767 27.4223 19.9892 27.5715 19.5H26.084C25.394 19.5 24.834 18.94 24.834 18.25V16.7625C25.3232 16.9108 25.8107 17 26.084 17C26.774 17 27.334 16.44 27.334 15.75C27.334 15.06 26.774 14.5 26.084 14.5C25.8107 14.5 25.3232 14.5883 24.834 14.7375V13.25C24.834 12.56 25.394 12 26.084 12H29.0007C30.8415 12 32.334 13.4925 32.334 15.3333V18.25ZM15.0715 22.8333C14.9232 22.3442 14.834 21.8567 14.834 21.5833C14.834 20.8933 15.394 20.3333 16.084 20.3333C16.774 20.3333 17.334 20.8933 17.334 21.5833C17.334 21.8567 17.2457 22.3442 17.0965 22.8333H19.834V16.5833C19.834 15.8933 19.274 15.3333 18.584 15.3333H15.6673C13.8265 15.3333 12.334 16.8258 12.334 18.6667V22.8333H15.0715ZM27.7507 24.5C28.4407 24.5 29.0007 25.06 29.0007 25.75V28.6667C29.0007 30.5075 27.5082 32 25.6673 32H21.5007V24.5H24.2382C24.0898 24.9892 24.0007 25.4767 24.0007 25.75C24.0007 26.44 24.5607 27 25.2507 27C25.9407 27 26.5007 26.44 26.5007 25.75C26.5007 25.4767 26.4123 24.9892 26.2632 24.5H27.7507ZM19.834 32H15.6673C13.8265 32 12.334 30.5075 12.334 28.6667V24.5H19.834V27.2375C19.3448 27.0892 18.8573 27 18.584 27C17.894 27 17.334 27.56 17.334 28.25C17.334 28.94 17.894 29.5 18.584 29.5C18.8573 29.5 19.3448 29.4117 19.834 29.2625V32Z" fill="white"/>
</g>
<defs>
<clipPath id="clip0_152_3816">
<rect width="20" height="20" fill="white" transform="translate(12.334 12)"/>
</clipPath>
</defs>
</svg>
