<svg width="28" height="28" viewBox="0 0 28 28" fill="none" xmlns="http://www.w3.org/2000/svg">
<rect width="28" height="28" rx="14" fill="#F7F7F9"/>
<g clip-path="url(#clip0_34485_3845)">
<path d="M17.666 7.27783C16.9153 7.28951 16.181 7.49907 15.5372 7.88535C14.8934 8.27162 14.3629 8.82094 13.9993 9.47783C13.6357 8.82094 13.1053 8.27162 12.4615 7.88535C11.8177 7.49907 11.0834 7.28951 10.3327 7.27783C9.13595 7.32983 8.00846 7.85333 7.19651 8.73399C6.38456 9.61464 5.95415 10.7808 5.99932 11.9778C5.99932 15.0092 9.18999 18.3198 11.866 20.5645C12.4635 21.0666 13.2189 21.3418 13.9993 21.3418C14.7798 21.3418 15.5352 21.0666 16.1327 20.5645C18.8087 18.3198 21.9993 15.0092 21.9993 11.9778C22.0445 10.7808 21.6141 9.61464 20.8021 8.73399C19.9902 7.85333 18.8627 7.32983 17.666 7.27783ZM15.276 19.5445C14.9186 19.8454 14.4665 20.0104 13.9993 20.0104C13.5322 20.0104 13.08 19.8454 12.7227 19.5445C9.29732 16.6705 7.33265 13.9132 7.33265 11.9778C7.28708 11.1343 7.5769 10.307 8.1389 9.6763C8.70089 9.04561 9.48948 8.66273 10.3327 8.61117C11.1758 8.66273 11.9644 9.04561 12.5264 9.6763C13.0884 10.307 13.3782 11.1343 13.3327 11.9778C13.3327 12.1546 13.4029 12.3242 13.5279 12.4492C13.6529 12.5743 13.8225 12.6445 13.9993 12.6445C14.1761 12.6445 14.3457 12.5743 14.4707 12.4492C14.5957 12.3242 14.666 12.1546 14.666 11.9778C14.6204 11.1343 14.9102 10.307 15.4722 9.6763C16.0342 9.04561 16.8228 8.66273 17.666 8.61117C18.5092 8.66273 19.2977 9.04561 19.8597 9.6763C20.4217 10.307 20.7116 11.1343 20.666 11.9778C20.666 13.9132 18.7013 16.6705 15.276 19.5418V19.5445Z" fill="#898989"/>
</g>
<defs>
<clipPath id="clip0_34485_3845">
<rect width="16" height="16" fill="white" transform="translate(6 6)"/>
</clipPath>
</defs>
</svg>
