<svg width="20" height="20" viewBox="0 0 20 20" fill="none" xmlns="http://www.w3.org/2000/svg">
<g clip-path="url(#clip0_34438_2853)">
<path d="M10.697 0.0234137C9.26831 -0.0765521 7.83481 0.131535 6.4935 0.633595C5.15219 1.13565 3.93437 1.91997 2.92244 2.93348C1.91052 3.94698 1.1281 5.16602 0.628136 6.50812C0.12817 7.85021 -0.07768 9.28404 0.0245151 10.7126C0.392015 16.0067 5.06868 20.0001 10.9028 20.0001H15.8337C16.9383 19.9988 17.9974 19.5593 18.7785 18.7782C19.5596 17.9971 19.999 16.9381 20.0004 15.8334V10.2834C20.0314 7.71462 19.0896 5.22916 17.3639 3.32606C15.6383 1.42295 13.2566 0.243112 10.697 0.0234137ZM10.0003 4.16675C10.3319 4.16675 10.6498 4.29844 10.8842 4.53286C11.1187 4.76728 11.2503 5.08523 11.2503 5.41675C11.2503 5.74827 11.1187 6.06621 10.8842 6.30063C10.6498 6.53505 10.3319 6.66675 10.0003 6.66675C9.66883 6.66675 9.35089 6.53505 9.11646 6.30063C8.88204 6.06621 8.75035 5.74827 8.75035 5.41675C8.75035 5.08523 8.88204 4.76728 9.11646 4.53286C9.35089 4.29844 9.66883 4.16675 10.0003 4.16675ZM11.667 15.0001C11.667 15.2211 11.5792 15.4331 11.4229 15.5893C11.2667 15.7456 11.0547 15.8334 10.8337 15.8334C10.6127 15.8334 10.4007 15.7456 10.2444 15.5893C10.0881 15.4331 10.0003 15.2211 10.0003 15.0001V10.0001H9.16702C8.946 10.0001 8.73404 9.91228 8.57776 9.756C8.42148 9.59972 8.33368 9.38776 8.33368 9.16675C8.33368 8.94573 8.42148 8.73377 8.57776 8.57749C8.73404 8.42121 8.946 8.33341 9.16702 8.33341H10.0003C10.4424 8.33341 10.8663 8.50901 11.1789 8.82157C11.4914 9.13413 11.667 9.55805 11.667 10.0001V15.0001Z" fill="white"/>
</g>
<defs>
<clipPath id="clip0_34438_2853">
<rect width="20" height="20" fill="white"/>
</clipPath>
</defs>
</svg>
