<svg width="16" height="16" viewBox="0 0 16 16" fill="none" xmlns="http://www.w3.org/2000/svg">
<g clip-path="url(#clip0_34430_572)">
<path d="M11.6657 1.27786C10.915 1.28954 10.1807 1.4991 9.53692 1.88538C8.89312 2.27166 8.36265 2.82098 7.99908 3.47786C7.6355 2.82098 7.10503 2.27166 6.46124 1.88538C5.81744 1.4991 5.08311 1.28954 4.33241 1.27786C3.1357 1.32986 2.00821 1.85337 1.19627 2.73402C0.384317 3.61467 -0.04609 4.78088 -0.000922988 5.97786C-0.000922988 9.0092 3.18974 12.3199 5.86574 14.5645C6.46322 15.0666 7.21865 15.3419 7.99908 15.3419C8.77951 15.3419 9.53493 15.0666 10.1324 14.5645C12.8084 12.3199 15.9991 9.0092 15.9991 5.97786C16.0442 4.78088 15.6138 3.61467 14.8019 2.73402C13.9899 1.85337 12.8624 1.32986 11.6657 1.27786ZM9.27574 13.5445C8.9184 13.8454 8.46625 14.0105 7.99908 14.0105C7.53191 14.0105 7.07975 13.8454 6.72241 13.5445C3.29708 10.6705 1.33241 7.9132 1.33241 5.97786C1.28684 5.13434 1.57665 4.30702 2.13865 3.67633C2.70065 3.04564 3.48923 2.66276 4.33241 2.6112C5.17559 2.66276 5.96417 3.04564 6.52617 3.67633C7.08817 4.30702 7.37798 5.13434 7.33241 5.97786C7.33241 6.15467 7.40265 6.32424 7.52767 6.44927C7.6527 6.57429 7.82227 6.64453 7.99908 6.64453C8.17589 6.64453 8.34546 6.57429 8.47048 6.44927C8.59551 6.32424 8.66574 6.15467 8.66574 5.97786C8.62017 5.13434 8.90999 4.30702 9.47199 3.67633C10.034 3.04564 10.8226 2.66276 11.6657 2.6112C12.5089 2.66276 13.2975 3.04564 13.8595 3.67633C14.4215 4.30702 14.7113 5.13434 14.6657 5.97786C14.6657 7.9132 12.7011 10.6705 9.27574 13.5419V13.5445Z" fill="#C40004"/>
</g>
<defs>
<clipPath id="clip0_34430_572">
<rect width="16" height="16" fill="white"/>
</clipPath>
</defs>
</svg>
