<svg width="16" height="15" viewBox="0 0 16 15" fill="none" xmlns="http://www.w3.org/2000/svg">
<path d="M6.98821 0.57582C7.23767 -0.191939 8.32385 -0.191938 8.57331 0.575821L9.83881 4.47062C9.95037 4.81398 10.2703 5.04644 10.6314 5.04644H14.7266C15.5339 5.04644 15.8695 6.07945 15.2164 6.55396L11.9033 8.96108C11.6112 9.17328 11.489 9.54942 11.6006 9.89277L12.8661 13.7876C13.1155 14.5553 12.2368 15.1938 11.5837 14.7193L8.27058 12.3121C7.97851 12.0999 7.58301 12.0999 7.29094 12.3121L3.97782 14.7193C3.32473 15.1938 2.446 14.5553 2.69546 13.7876L3.96095 9.89277C4.07252 9.54942 3.9503 9.17328 3.65823 8.96108L0.345111 6.55396C-0.307984 6.07945 0.0276632 5.04644 0.834933 5.04644H4.93017C5.29119 5.04644 5.61115 4.81397 5.72272 4.47062L6.98821 0.57582Z" fill="#F98028"/>
</svg>
