<svg width="20" height="20" viewBox="0 0 20 20" fill="none" xmlns="http://www.w3.org/2000/svg">
<g clip-path="url(#clip0_34438_2861)">
<path d="M15 19.1666H4.16667C1.86667 19.1666 0 17.2999 0 14.9999V5.83325C0 5.37492 0.375 4.99992 0.833333 4.99992C1.29167 4.99992 1.66667 5.37492 1.66667 5.83325V14.9999C1.66667 16.3749 2.79167 17.4999 4.16667 17.4999H15C15.4583 17.4999 15.8333 17.8749 15.8333 18.3333C15.8333 18.7916 15.4583 19.1666 15 19.1666ZM9.9 7.59992C10.875 8.57492 12.4583 8.57492 13.4333 7.59992L18.8667 2.16659C18.1083 1.34992 17.0333 0.833252 15.8333 0.833252H7.5C6.3 0.833252 5.225 1.34992 4.46667 2.16659L9.9 7.59992ZM14.6167 8.77492C13.8083 9.58325 12.7333 9.99159 11.6667 9.99159C10.6 9.99159 9.53333 9.58325 8.71667 8.77492L3.58333 3.64159C3.43333 4.06659 3.33333 4.52492 3.33333 4.99992V11.6666C3.33333 13.9666 5.2 15.8333 7.5 15.8333H15.8333C18.1333 15.8333 20 13.9666 20 11.6666V4.99992C20 4.52492 19.9 4.06659 19.75 3.64159L14.6083 8.78325L14.6167 8.77492Z" fill="white"/>
</g>
<defs>
<clipPath id="clip0_34438_2861">
<rect width="20" height="20" fill="white"/>
</clipPath>
</defs>
</svg>
