<svg width="44" height="44" viewBox="0 0 44 44" fill="none" xmlns="http://www.w3.org/2000/svg">
<rect width="44" height="44" rx="22" fill="white"/>
<g clip-path="url(#clip0_34438_5859)">
<path d="M25.8078 23.3099C25.4287 23.0465 24.9095 23.1415 24.6478 23.5199C24.3862 23.8982 24.4803 24.4174 24.8587 24.679C25.1703 24.8949 25.4612 25.1124 25.732 25.3324H18.2695C19.467 24.359 20.9187 23.5524 22.4045 22.7274C26.1212 20.6624 30.3337 18.3224 30.3337 12.8324C30.3337 12.3724 29.9612 11.999 29.5003 11.999C29.0395 11.999 28.667 12.3724 28.667 12.8324C28.667 13.1207 28.6528 13.3982 28.6253 13.6657H15.3728C15.347 13.3957 15.3337 13.1182 15.3337 12.8324C15.3337 12.3724 14.9612 11.999 14.5003 11.999C14.0395 11.999 13.667 12.3724 13.667 12.8324C13.667 17.0165 16.0853 19.229 18.1928 20.689C18.3378 20.7899 18.5028 20.8374 18.6662 20.8374C18.9303 20.8374 19.1903 20.7124 19.352 20.4782C19.6137 20.0999 19.5195 19.5807 19.1412 19.319C18.8295 19.1032 18.5387 18.8857 18.2678 18.6657H25.7312C24.5337 19.639 23.082 20.4457 21.5962 21.2707C17.8795 23.3357 13.667 25.6757 13.667 31.1657C13.667 31.6257 14.0395 31.999 14.5003 31.999C14.9612 31.999 15.3337 31.6257 15.3337 31.1657C15.3337 30.8774 15.3478 30.5999 15.3753 30.3324H28.6278C28.6537 30.6024 28.667 30.8799 28.667 31.1657C28.667 31.6257 29.0395 31.999 29.5003 31.999C29.9612 31.999 30.3337 31.6257 30.3337 31.1657C30.3337 26.9815 27.9153 24.7699 25.8078 23.3099ZM16.6378 16.9999C16.2478 16.4724 15.9503 15.9207 15.7387 15.3332H28.2495C28.027 15.9449 27.7228 16.4957 27.3528 16.9999H16.6378ZM15.7512 28.6665C15.9737 28.0549 16.2778 27.504 16.6478 26.9999H27.3628C27.7528 27.5274 28.0503 28.079 28.262 28.6665H15.7512Z" fill="#0882E5"/>
</g>
<defs>
<clipPath id="clip0_34438_5859">
<rect width="20" height="20" fill="white" transform="translate(12 12)"/>
</clipPath>
</defs>
</svg>
