<svg width="20" height="20" viewBox="0 0 20 20" fill="none" xmlns="http://www.w3.org/2000/svg">
<g clip-path="url(#clip0_34438_2857)">
<path d="M3.75 9.16659H0.833333C0.3725 9.16659 0 8.79325 0 8.33325C0 7.87325 0.3725 7.49992 0.833333 7.49992H3.75C4.21083 7.49992 4.58333 7.87325 4.58333 8.33325C4.58333 8.79325 4.21083 9.16659 3.75 9.16659ZM8.46167 1.66659C8.46167 1.20659 8.08917 0.833252 7.62833 0.833252H0.833333C0.3725 0.833252 0 1.20659 0 1.66659C0 2.12659 0.3725 2.49992 0.833333 2.49992H7.62833C8.08917 2.49992 8.46167 2.12659 8.46167 1.66659ZM6.795 4.99992C6.795 4.53992 6.4225 4.16659 5.96167 4.16659H0.833333C0.3725 4.16659 0 4.53992 0 4.99992C0 5.45992 0.3725 5.83325 0.833333 5.83325H5.96167C6.4225 5.83325 6.795 5.45992 6.795 4.99992ZM12.5475 16.6666C12.5192 16.8016 12.4992 16.9399 12.4992 17.0833C12.4992 18.2341 13.4317 19.1666 14.5825 19.1666C15.7333 19.1666 16.6658 18.2341 16.6658 17.0833C16.6658 16.9399 16.6458 16.8016 16.6175 16.6666H12.5467H12.5475ZM12.4992 14.9999V4.99992C12.4992 3.32575 11.5117 1.88242 10.0867 1.21992C10.1133 1.36492 10.1275 1.51409 10.1275 1.66659C10.1275 2.81825 9.345 3.78909 8.28417 4.07825C8.3975 4.36325 8.46083 4.67409 8.46083 4.99992C8.46083 6.33075 7.41583 7.42075 6.10417 7.49575C6.1975 7.75742 6.24917 8.03992 6.24917 8.33325C6.24917 9.71159 5.1275 10.8333 3.74917 10.8333H0.833333C0.540833 10.8333 0.260833 10.7824 0 10.6899V11.6666C0 13.5074 1.4925 14.9999 3.33333 14.9999H12.5H12.4992ZM3.38083 16.6666C3.3525 16.8016 3.3325 16.9399 3.3325 17.0833C3.3325 18.2341 4.265 19.1666 5.41583 19.1666C6.56667 19.1666 7.49917 18.2341 7.49917 17.0833C7.49917 16.9399 7.47917 16.8016 7.45083 16.6666H3.38083ZM14.1658 14.9999H16.6658C18.5067 14.9999 19.9992 13.5074 19.9992 11.6666V10.8333H14.1658V14.9999ZM15.8325 4.16659H14.1658V9.16659H19.9992V8.33325C19.9992 6.03242 18.1333 4.16659 15.8325 4.16659Z" fill="white"/>
</g>
<defs>
<clipPath id="clip0_34438_2857">
<rect width="20" height="20" fill="white"/>
</clipPath>
</defs>
</svg>
