<svg width="44" height="44" viewBox="0 0 44 44" fill="none" xmlns="http://www.w3.org/2000/svg">
<rect width="44" height="44" rx="22" fill="#C40004"/>
<g clip-path="url(#clip0_152_3786)">
<path d="M16.666 23.4025L13.1635 19.9C12.5718 19.3083 12.2935 18.5308 12.2027 17.7608C11.8593 17.4175 11.666 16.9508 11.666 16.465V13.35C11.666 12.5792 12.316 11.96 13.0985 12.0117C13.4318 12.0333 13.7418 12.1883 13.9785 12.4242L15.2343 13.6758H20.6468C21.1885 13.6758 21.6635 14.1183 21.666 14.6592C21.6685 15.1992 21.2318 15.6383 20.691 15.6392H19.5085L21.7518 17.8825C21.0718 17.9742 20.4718 18.3233 20.0785 18.8483C19.6935 18.6975 19.2627 18.6383 18.8118 18.7C17.5702 18.8717 16.6652 19.9692 16.6652 21.2225L16.666 23.4025ZM30.0043 12.0033L28.8443 12C28.4002 11.9983 27.9743 12.1742 27.6602 12.4883L26.7935 13.355C26.0235 13.445 25.246 13.7242 24.6543 14.3158C24.6543 14.3158 22.7727 16.3 22.6552 16.4292L26.8268 20.6008C27.3985 21.1742 27.3977 22.1792 27.3977 22.1792L28.9152 20.6617V21.8442C28.9152 22.3825 29.3518 22.8192 29.8902 22.8192C30.4285 22.8192 30.8652 22.3825 30.8652 21.8442L30.8335 16.3867L31.056 16.1642C31.4468 15.7733 31.666 15.2433 31.666 14.6908V13.67C31.666 12.7517 30.9227 12.0067 30.0043 12.0033ZM24.9993 21.175C24.5393 21.175 24.166 21.5483 24.166 22.0083V24.7167C24.166 25.0617 23.886 25.3417 23.541 25.3417C23.196 25.3417 22.916 25.0617 22.916 24.7167V20.3417C22.916 19.8817 22.5427 19.5083 22.0827 19.5083C21.6227 19.5083 21.2493 19.8817 21.2493 20.3417V24.7167C21.2493 25.0617 20.9693 25.3417 20.6243 25.3417C20.2793 25.3417 19.9993 25.0617 19.9993 24.7167V21.175C19.9993 20.715 19.626 20.3417 19.166 20.3417C18.706 20.3417 18.3327 20.715 18.3327 21.175V27.2967L17.4968 26.4608C17.116 26.08 16.4993 26.08 16.1185 26.4608C15.7377 26.8417 15.7377 27.4583 16.1185 27.8392L19.4243 31.0617C20.0468 31.6683 20.8818 32.0083 21.751 32.0083H24.166C24.626 32.0083 24.9993 31.635 24.9993 31.175V30.8583C25.5118 30.2725 25.8327 29.5142 25.8327 28.675V22.0092C25.8327 21.5492 25.4593 21.175 24.9993 21.175Z" fill="white"/>
</g>
<defs>
<clipPath id="clip0_152_3786">
<rect width="20" height="20" fill="white" transform="translate(11.666 12)"/>
</clipPath>
</defs>
</svg>
