<svg width="44" height="44" viewBox="0 0 44 44" fill="none" xmlns="http://www.w3.org/2000/svg">
<rect width="44" height="44" rx="22" fill="#C40004"/>
<g clip-path="url(#clip0_152_3778)">
<path d="M27.8333 16.1667H25.3333V15.3334C25.3333 14.6703 25.0699 14.0344 24.6011 13.5656C24.1323 13.0968 23.4964 12.8334 22.8333 12.8334H21.1667C20.5036 12.8334 19.8677 13.0968 19.3989 13.5656C18.9301 14.0344 18.6667 14.6703 18.6667 15.3334V16.1667H16.1667C15.062 16.168 14.003 16.6074 13.2218 17.3886C12.4407 18.1697 12.0013 19.2287 12 20.3334L12 27C12.0013 28.1047 12.4407 29.1637 13.2218 29.9449C14.003 30.726 15.062 31.1654 16.1667 31.1667H27.8333C28.938 31.1654 29.997 30.726 30.7782 29.9449C31.5593 29.1637 31.9987 28.1047 32 27V20.3334C31.9987 19.2287 31.5593 18.1697 30.7782 17.3886C29.997 16.6074 28.938 16.168 27.8333 16.1667ZM20.3333 15.3334C20.3333 15.1124 20.4211 14.9004 20.5774 14.7441C20.7337 14.5878 20.9457 14.5 21.1667 14.5H22.8333C23.0543 14.5 23.2663 14.5878 23.4226 14.7441C23.5789 14.9004 23.6667 15.1124 23.6667 15.3334V16.1667H20.3333V15.3334ZM24.5 24.5H22.8333V26.1667C22.8333 26.3877 22.7455 26.5997 22.5893 26.756C22.433 26.9122 22.221 27 22 27C21.779 27 21.567 26.9122 21.4107 26.756C21.2545 26.5997 21.1667 26.3877 21.1667 26.1667V24.5H19.5C19.279 24.5 19.067 24.4122 18.9107 24.256C18.7545 24.0997 18.6667 23.8877 18.6667 23.6667C18.6667 23.4457 18.7545 23.2337 18.9107 23.0775C19.067 22.9212 19.279 22.8334 19.5 22.8334H21.1667V21.1667C21.1667 20.9457 21.2545 20.7337 21.4107 20.5775C21.567 20.4212 21.779 20.3334 22 20.3334C22.221 20.3334 22.433 20.4212 22.5893 20.5775C22.7455 20.7337 22.8333 20.9457 22.8333 21.1667V22.8334H24.5C24.721 22.8334 24.933 22.9212 25.0893 23.0775C25.2455 23.2337 25.3333 23.4457 25.3333 23.6667C25.3333 23.8877 25.2455 24.0997 25.0893 24.256C24.933 24.4122 24.721 24.5 24.5 24.5Z" fill="white"/>
</g>
<defs>
<clipPath id="clip0_152_3778">
<rect width="20" height="20" fill="white" transform="translate(12 12)"/>
</clipPath>
</defs>
</svg>
