<svg width="48" height="48" viewBox="0 0 48 48" fill="none" xmlns="http://www.w3.org/2000/svg">
<path d="M24 48C37.2548 48 48 37.2548 48 24C48 10.7452 37.2548 0 24 0C10.7452 0 0 10.7452 0 24C0 37.2548 10.7452 48 24 48Z" fill="white"/>
<path d="M7.09961 19.2999H10.3996C10.6996 19.2999 11.5996 19.1999 11.9996 20.5999C12.2996 21.4999 12.6996 22.8999 13.2996 24.9999H13.4996C14.0996 22.7999 14.5996 21.2999 14.7996 20.5999C15.1996 19.1999 16.1996 19.2999 16.5996 19.2999H19.6996V28.8999H16.4996V23.1999H16.2996L14.5996 28.8999H12.1996L10.4996 23.1999H10.1996V28.8999H7.09961M20.9996 19.2999H24.1996V24.9999H24.4996L26.5996 20.2999C26.9996 19.3999 27.8996 19.2999 27.8996 19.2999H30.8996V28.8999H27.6996V23.1999H27.4996L25.3996 27.8999C24.9996 28.7999 23.9996 28.8999 23.9996 28.8999H20.9996M35.1996 25.9999V28.8999H32.1996V23.8999H41.9996C41.5996 25.0999 40.1996 25.9999 38.5996 25.9999" fill="#0F754E"/>
<path d="M42.2 23.3C42.6 21.5 41.4 19.3 38.8 19.3H32C32.2 21.4 34 23.3 35.9 23.3" fill="url(#paint0_linear_34438_2906)"/>
<defs>
<linearGradient id="paint0_linear_34438_2906" x1="41" y1="18" x2="33" y2="18" gradientUnits="userSpaceOnUse">
<stop stop-color="#1F5CD7"/>
<stop offset="1" stop-color="#02AEFF"/>
</linearGradient>
</defs>
</svg>
