<svg width="20" height="20" viewBox="0 0 20 20" fill="none" xmlns="http://www.w3.org/2000/svg">
<path d="M12.8333 8.23334L9.00832 4.40834C8.85219 4.25313 8.64098 4.16602 8.42082 4.16602C8.20067 4.16602 7.98946 4.25313 7.83332 4.40834C7.75521 4.48581 7.69322 4.57798 7.65091 4.67953C7.6086 4.78108 7.58682 4.89 7.58682 5.00001C7.58682 5.11002 7.6086 5.21894 7.65091 5.32049C7.69322 5.42204 7.75521 5.51421 7.83332 5.59168L11.6667 9.40834C11.7448 9.48581 11.8068 9.57798 11.8491 9.67953C11.8914 9.78108 11.9132 9.89 11.9132 10C11.9132 10.11 11.8914 10.2189 11.8491 10.3205C11.8068 10.422 11.7448 10.5142 11.6667 10.5917L7.83332 14.4083C7.6764 14.5642 7.58781 14.7759 7.58702 14.9971C7.58624 15.2182 7.67334 15.4306 7.82916 15.5875C7.98497 15.7444 8.19674 15.833 8.41787 15.8338C8.63901 15.8346 8.8514 15.7475 9.00832 15.5917L12.8333 11.7667C13.3015 11.2979 13.5645 10.6625 13.5645 10C13.5645 9.33751 13.3015 8.70209 12.8333 8.23334Z" fill="#0882E5"/>
</svg>
